<svg width="512" height="512" viewBox="0 0 512 512" fill="none" xmlns="http://www.w3.org/2000/svg">
<rect width="512" height="512" rx="96" fill="#0a0a0a"/>
<g transform="translate(100, 100) scale(9.94)">
<path d="M15.705 0.299257H2.79948C1.25248 0.299257 0 1.54666 0 3.08741V28.797C0 30.3378 1.25248 31.5852 2.79948 31.5852H15.705C24.3801 31.5852 31.413 24.5807 31.413 15.9407C31.413 7.30074 24.3801 0.296295 15.705 0.296295V0.299257ZM19.9385 16.6607L24.1689 22.6311C24.9811 23.7748 23.5739 25.1763 22.4226 24.3704L16.4279 20.157C15.9936 19.8518 15.4165 19.8518 14.9821 20.157L8.98748 24.3704C7.83913 25.1793 6.43195 23.7778 7.24115 22.6311L11.4716 16.6607C11.778 16.2281 11.778 15.6533 11.4716 15.2207L7.24115 9.25037C6.42897 8.10667 7.83615 6.70519 8.98748 7.51111C17.5525 13.2889 13.8873 13.2474 22.4226 7.51111C23.5709 6.70222 24.9781 8.10667 24.1689 9.25037L19.9385 15.2207C19.632 15.6533 19.632 16.2281 19.9385 16.6607Z" fill="white"/>
</g>
</svg>
