<svg width="119" height="32" viewBox="0 0 119 32" fill="none" xmlns="http://www.w3.org/2000/svg">
<g clip-path="url(#clip0_5_2)">
<path d="M15.705 0.299257H2.79948C1.25248 0.299257 0 1.54666 0 3.08741V28.797C0 30.3378 1.25248 31.5852 2.79948 31.5852H15.705C24.3801 31.5852 31.413 24.5807 31.413 15.9407C31.413 7.30074 24.3801 0.296295 15.705 0.296295V0.299257ZM19.9385 16.6607L24.1689 22.6311C24.9811 23.7748 23.5739 25.1763 22.4226 24.3704L16.4279 20.157C15.9936 19.8518 15.4165 19.8518 14.9821 20.157L8.98748 24.3704C7.83913 25.1793 6.43195 23.7778 7.24115 22.6311L11.4716 16.6607C11.778 16.2281 11.778 15.6533 11.4716 15.2207L7.24115 9.25037C6.42897 8.10667 7.83615 6.70519 8.98748 7.51111C17.5525 13.2889 13.8873 13.2474 22.4226 7.51111C23.5709 6.70222 24.9781 8.10667 24.1689 9.25037L19.9385 15.2207C19.632 15.6533 19.632 16.2281 19.9385 16.6607Z" fill="white"/>
<path d="M51.9197 14.557H51.8394C51.5211 14.0533 51.1165 13.6119 50.6167 13.2326C50.1169 12.8533 49.5308 12.56 48.8525 12.3526C48.1742 12.1452 47.4126 12.0415 46.5677 12.0415C45.2558 12.0415 44.1163 12.3052 43.1494 12.8296C42.1826 13.3541 41.4358 14.0859 40.9093 15.0222C40.3797 15.9585 40.1179 17.0519 40.1179 18.3082V18.3319C40.1179 19.5704 40.3827 20.6637 40.9152 21.6119C41.4478 22.56 42.1945 23.2948 43.1554 23.8222C44.1163 24.3496 45.2587 24.6104 46.5796 24.6104C47.4245 24.6104 48.1861 24.5037 48.8644 24.2933C49.5427 24.083 50.1318 23.7896 50.6286 23.4133C51.1254 23.037 51.53 22.6045 51.8394 22.1185H51.9197V24.3289H55.5076V8.06223H51.9197V14.5541V14.557ZM51.8989 18.3319C51.8989 19.0696 51.7323 19.7096 51.3961 20.2548C51.06 20.8 50.5869 21.2207 49.9771 21.517C49.3672 21.8133 48.6502 21.9615 47.8261 21.9615C47.0021 21.9615 46.2583 21.8163 45.6574 21.5289C45.0564 21.2385 44.5983 20.8237 44.277 20.2844C43.9557 19.7422 43.795 19.0933 43.795 18.3348V18.3111C43.795 17.5585 43.9557 16.9126 44.277 16.3733C44.5983 15.8341 45.0564 15.4163 45.6574 15.123C46.2583 14.8296 46.9783 14.6845 47.8261 14.6845C48.674 14.6845 49.3642 14.8326 49.9711 15.1289C50.578 15.4252 51.051 15.8459 51.3902 16.3911C51.7293 16.9363 51.8989 17.5763 51.8989 18.3141V18.3378V18.3319Z" fill="white"/>
<path d="M68.2256 12.5956C67.2171 12.2282 66.0093 12.0444 64.5961 12.0444C63.2901 12.0444 62.1685 12.2163 61.2284 12.557C60.2883 12.8978 59.5446 13.3748 58.9942 13.9882C58.4438 14.6015 58.0987 15.3007 57.9649 16.0889L57.9411 16.2341H61.3355L61.3683 16.1215C61.5051 15.6326 61.8413 15.2474 62.3798 14.96C62.9182 14.6756 63.6382 14.5304 64.5366 14.5304C65.563 14.5304 66.3544 14.7289 66.9137 15.123C67.47 15.517 67.7496 16.0711 67.7496 16.7852V17.117L62.6564 17.2237C61.4129 17.2533 60.4014 17.4163 59.6219 17.7126C58.8455 18.0089 58.2743 18.4178 57.9143 18.9422C57.5513 19.4637 57.3699 20.0711 57.3699 20.7615V20.7733C57.3699 21.5852 57.59 22.2667 58.0273 22.8178C58.4647 23.3689 59.0805 23.7926 59.8718 24.0859C60.6632 24.3793 61.5973 24.5244 62.6683 24.5244C63.4389 24.5244 64.1469 24.4356 64.7955 24.2548C65.444 24.0741 66.0182 23.8193 66.515 23.4874C67.0118 23.1556 67.4016 22.7615 67.6812 22.3052H67.7496V24.323H71.3375V16.7022C71.3375 15.7244 71.0697 14.8889 70.5342 14.1896C69.9987 13.4904 69.2282 12.957 68.2227 12.5896L68.2256 12.5956ZM67.2439 20.9185C66.9047 21.3215 66.4317 21.6356 65.8278 21.8607C65.2239 22.0859 64.5099 22.1985 63.6888 22.1985C62.8677 22.1985 62.1923 22.0682 61.6866 21.8044C61.1808 21.5407 60.928 21.1407 60.928 20.5985V20.5748C60.928 20.1541 61.1065 19.8222 61.4664 19.5763C61.8234 19.3333 62.4065 19.203 63.2157 19.1882L67.7526 19.0756V19.4815C67.7526 20.0385 67.583 20.5156 67.2439 20.9185Z" fill="white"/>
<path d="M81.0628 12.077C80.09 12.077 79.2719 12.3111 78.6055 12.7822C77.9391 13.2533 77.4809 13.9111 77.2251 14.7615H77.1566V12.3378L73.5569 12.3141V24.3289H77.1566V18.6133C77.1566 17.8104 77.3084 17.1378 77.6088 16.6015C77.9093 16.0652 78.3318 15.6593 78.8762 15.3837C79.4206 15.1082 80.0692 14.9719 80.8218 14.9719C81.0866 14.9719 81.3425 14.9867 81.5924 15.0163C81.8423 15.0459 82.0654 15.0845 82.2588 15.1289V12.1985C82.107 12.1689 81.9285 12.1393 81.7203 12.1126C81.512 12.0859 81.2919 12.0741 81.0569 12.0741L81.0628 12.077Z" fill="white"/>
<path d="M90.6484 21.2741H90.5829L86.5637 12.3141H82.7825L88.6462 24.3289H92.5167L98.312 12.3141H94.5664L90.6484 21.2741Z" fill="white"/>
<path d="M103.212 12.3141H99.5911V24.3289H103.212V12.3141Z" fill="white"/>
<path d="M101.412 7.27408C100.838 7.27408 100.365 7.44297 99.9929 7.78075C99.618 8.11853 99.4336 8.53631 99.4336 9.03112C99.4336 9.52594 99.621 9.94371 99.9929 10.2756C100.368 10.6104 100.841 10.7763 101.412 10.7763C101.983 10.7763 102.456 10.6104 102.822 10.2756C103.188 9.94075 103.372 9.52594 103.372 9.03112C103.372 8.53631 103.188 8.11853 102.822 7.78075C102.456 7.44297 101.986 7.27408 101.412 7.27408Z" fill="white"/>
<path d="M117.762 18.3556C117.072 17.8133 115.936 17.4578 114.35 17.2859L111 16.9482C110.489 16.8948 110.075 16.8178 109.766 16.7111C109.456 16.6044 109.233 16.4741 109.099 16.317C108.962 16.16 108.897 15.9615 108.897 15.7185V15.7067C108.897 15.4222 109.004 15.1763 109.218 14.9689C109.432 14.7615 109.754 14.6015 110.179 14.4889C110.605 14.3763 111.128 14.32 111.747 14.32C112.735 14.32 113.517 14.4563 114.088 14.7259C114.663 14.9956 114.987 15.3719 115.061 15.8519L115.073 15.92H118.411L118.399 15.7956C118.34 15.0282 118.042 14.3644 117.51 13.8015C116.977 13.2385 116.224 12.803 115.252 12.5007C114.279 12.1985 113.095 12.0444 111.696 12.0444C110.384 12.0444 109.251 12.1956 108.302 12.5007C107.353 12.8059 106.624 13.2445 106.124 13.8193C105.624 14.3941 105.372 15.0844 105.372 15.8874V15.9111C105.372 16.557 105.535 17.12 105.859 17.597C106.184 18.0741 106.672 18.4593 107.32 18.7526C107.969 19.0459 108.787 19.2445 109.778 19.3511L113.083 19.6889C113.868 19.7719 114.416 19.9052 114.731 20.0889C115.043 20.2726 115.201 20.5541 115.201 20.9274V20.9393C115.201 21.2326 115.085 21.4845 114.85 21.6948C114.615 21.9052 114.279 22.0652 113.838 22.1748C113.398 22.2844 112.851 22.3378 112.202 22.3378C111.116 22.3378 110.268 22.2104 109.662 21.9556C109.055 21.7007 108.683 21.3215 108.546 20.8178L108.522 20.7289H105.003L105.015 20.8178C105.113 21.6148 105.449 22.2933 106.026 22.8593C106.603 23.4222 107.406 23.8578 108.436 24.16C109.465 24.4622 110.709 24.6163 112.166 24.6163C113.547 24.6163 114.734 24.4563 115.725 24.1363C116.718 23.8163 117.477 23.36 118.006 22.7674C118.536 22.1748 118.798 21.4667 118.798 20.6489V20.637C118.798 19.6593 118.453 18.9007 117.762 18.3615V18.3556Z" fill="white"/>
</g>
<defs>
<clipPath id="clip0_5_2">
<rect width="119" height="32" fill="white"/>
</clipPath>
</defs>
</svg>
