<svg width="124" height="124" viewBox="0 0 124 124" fill="none" xmlns="http://www.w3.org/2000/svg">
<path d="M114.233 77.3182C112.313 77.1082 110.403 77.2282 108.003 76.6582C105.913 66.8682 97.3231 59.8582 87.4431 59.5882C77.5631 59.3182 68.5331 66.0682 66.0131 76.0182C63.5231 75.8682 61.5731 75.8982 58.8931 76.5382C56.4931 66.6082 48.0131 59.6382 38.0831 59.5582C27.9431 59.4782 18.9531 66.3082 16.7731 76.4982L9.51312 77.6582C9.80312 66.8682 6.94312 54.4082 19.1531 48.6482C30.6931 43.2082 45.8831 42.1782 58.8431 41.7282L58.8231 26.4782L54.8431 25.0382C51.2931 23.7482 49.3831 20.2582 49.4031 16.6982C49.4231 13.1382 51.4331 9.95817 54.9631 8.41817C59.4331 6.46817 64.5731 6.50817 68.9331 8.66817C73.2431 10.8082 75.0931 15.3982 73.4631 19.8782C72.0931 23.0682 69.4131 25.1682 65.7531 25.9682L65.8231 41.8182C77.8131 42.4682 94.6431 44.1082 105.083 49.4882C116.223 55.2282 114.293 66.7682 114.253 77.3282L114.233 77.3182Z" fill="#F05823"/>
<path d="M113.283 85.7082C111.113 95.4482 109.033 105.938 98.6531 110.378C94.3431 112.218 90.0831 113.458 85.3431 114.228C67.6731 117.088 43.1531 117.068 26.2731 110.618C15.3431 106.438 13.3631 96.3082 10.9231 86.2382C12.7531 85.8982 14.5431 84.3882 16.8531 84.8282C18.7331 94.0182 26.1531 100.548 35.4131 101.508C46.7831 102.688 56.8031 95.2682 58.9431 84.0482C61.1531 83.5382 63.1331 83.5782 65.6031 83.7082C67.5031 93.9182 75.9731 101.188 86.0931 101.588C96.2131 101.988 105.603 95.2482 107.833 84.9282C109.723 84.5882 111.363 85.2582 113.263 85.7282L113.283 85.7082Z" fill="#F05823"/>
<path d="M114.233 77.3181C116.253 77.5381 118.103 78.3381 118.783 79.6281C119.703 81.3981 119.403 83.3881 118.383 84.5281C117.113 85.9581 114.953 86.1181 113.293 85.7081C111.393 85.2381 109.753 84.5681 107.863 84.9081C105.623 95.2281 96.3232 101.968 86.1232 101.568C75.9232 101.168 67.5332 93.8981 65.6332 83.6881C63.1532 83.5581 61.1732 83.5081 58.9732 84.0281C56.8232 95.2481 46.8132 102.668 35.4432 101.488C26.1832 100.528 18.7632 94.0081 16.8832 84.8081C14.5732 84.3681 12.7832 85.8781 10.9532 86.2181C7.72319 86.8081 5.21319 84.9481 5.01319 82.2581C4.81319 79.5681 6.91319 78.1381 9.52319 77.6381L16.7832 76.4781C18.9632 66.2981 27.9632 59.4681 38.0932 59.5381C48.0232 59.6181 56.5032 66.5881 58.9032 76.5181C61.5832 75.8781 63.5332 75.8481 66.0232 75.9981C68.5432 66.0481 77.3632 59.2881 87.4532 59.5681C97.5432 59.8481 105.923 66.8581 108.013 76.6381C110.413 77.2081 112.323 77.0881 114.243 77.2981L114.233 77.3181ZM53.3732 80.5981C53.3732 71.9981 46.4032 65.0281 37.7932 65.0281C29.1832 65.0281 22.2132 71.9981 22.2132 80.5981C22.2132 89.1981 29.1832 96.1681 37.7932 96.1681C46.4032 96.1681 53.3732 89.1981 53.3732 80.5981ZM102.463 80.6081C102.463 72.0181 95.4932 65.0481 86.8932 65.0481C78.2932 65.0481 71.3232 72.0181 71.3232 80.6081C71.3232 89.1981 78.2932 96.1681 86.8932 96.1681C95.4932 96.1681 102.463 89.1981 102.463 80.6081Z" fill="black"/>
<path d="M53.3731 80.5982C53.3731 89.1982 46.4031 96.1682 37.7931 96.1682C29.1831 96.1682 22.2131 89.1982 22.2131 80.5982C22.2131 71.9982 29.1831 65.0282 37.7931 65.0282C46.4031 65.0282 53.3731 71.9982 53.3731 80.5982ZM49.9531 80.6182C49.9531 76.8882 46.9331 73.8682 43.2031 73.8682C39.4731 73.8682 36.4531 76.8882 36.4531 80.6182C36.4531 84.3482 39.4731 87.3682 43.2031 87.3682C46.9331 87.3682 49.9531 84.3482 49.9531 80.6182Z" fill="white"/>
<path d="M102.463 80.6082C102.463 89.1982 95.4932 96.1682 86.8932 96.1682C78.2932 96.1682 71.3232 89.1982 71.3232 80.6082C71.3232 72.0182 78.2932 65.0482 86.8932 65.0482C95.4932 65.0482 102.463 72.0182 102.463 80.6082ZM99.0432 80.5882C99.0432 76.8582 96.0232 73.8382 92.2932 73.8382C88.5632 73.8382 85.5432 76.8582 85.5432 80.5882C85.5432 84.3182 88.5632 87.3382 92.2932 87.3382C96.0232 87.3382 99.0432 84.3182 99.0432 80.5882Z" fill="white"/>
<path d="M43.2031 87.3682C46.931 87.3682 49.9531 84.3461 49.9531 80.6182C49.9531 76.8902 46.931 73.8682 43.2031 73.8682C39.4752 73.8682 36.4531 76.8902 36.4531 80.6182C36.4531 84.3461 39.4752 87.3682 43.2031 87.3682Z" fill="black"/>
<path d="M92.2932 87.3381C96.0211 87.3381 99.0432 84.3161 99.0432 80.5881C99.0432 76.8602 96.0211 73.8381 92.2932 73.8381C88.5653 73.8381 85.5432 76.8602 85.5432 80.5881C85.5432 84.3161 88.5653 87.3381 92.2932 87.3381Z" fill="black"/>
</svg>
